<?xml version="1.0" encoding="utf-8"?>
<!-- Generator: Adobe Illustrator 21.0.0, SVG Export Plug-In . SVG Version: 6.00 Build 0)  -->
<svg version="1.1" id="Layer_1" xmlns="http://www.w3.org/2000/svg" xmlns:xlink="http://www.w3.org/1999/xlink" x="0px" y="0px"
	 viewBox="0 0 77 24" style="enable-background:new 0 0 77 24;" xml:space="preserve">
<style type="text/css">
	.st0{fill:#FFFFFF;}
	.st1{enable-background:new    ;}
</style>
<title>Group 3</title>
<desc>Created with Sketch.</desc>
<path id="Page-1" class="st0" d="M13.5,0.1c-0.1-0.1-0.2-0.1-0.2,0L0,23.1c-0.1,0.1,0,0.2,0.1,0.1l8.2-4c0.1-0.1,0.3-0.2,0.3-0.3
	l4.6-7.9c0.1-0.1,0.2-0.1,0.2,0l4.6,7.9c0.1,0.1,0.2,0.2,0.3,0.3l8.2,4c0.1,0.1,0.2,0,0.1-0.1L13.5,0.1z"/>
<g class="st1">
	<path class="st0" d="M43,14.5l-0.7-1.8h-4.6l-0.7,1.8h-2.6l4.1-10.7h2.8l4.1,10.7H43z M40,6.1l-1.7,4.6h3.3L40,6.1z"/>
	<path class="st0" d="M52.1,14.5v-1c-0.6,0.8-1.4,1.2-2.4,1.2c-1.9,0-3.4-1.5-3.4-4.1c0-2.5,1.5-4,3.4-4c0.9,0,1.8,0.4,2.4,1.2V3.8
		h2v10.7H52.1z M52.1,12V9.3c-0.3-0.5-1.1-0.9-1.7-0.9c-1.2,0-2,0.9-2,2.2c0,1.3,0.8,2.3,2,2.3C51,12.9,51.8,12.5,52.1,12z"/>
	<path class="st0" d="M56.2,13.4c0-0.7,0.6-1.3,1.3-1.3s1.3,0.6,1.3,1.3c0,0.7-0.6,1.3-1.3,1.3S56.2,14.1,56.2,13.4z"/>
	<path class="st0" d="M60.8,14.5V3.8h2.3v10.7H60.8z"/>
	<path class="st0" d="M65,9.2c0-3.2,2.4-5.5,5.6-5.5c3.2,0,5.6,2.3,5.6,5.5c0,1.5-0.5,2.8-1.4,3.8l0.8,0.9l-1.6,1.3l-0.9-1
		c-0.7,0.3-1.6,0.5-2.5,0.5C67.3,14.7,65,12.4,65,9.2z M71.6,12.5l-1.2-1.4l1.6-1.3l1.2,1.4c0.4-0.6,0.5-1.3,0.5-2
		c0-2-1.3-3.5-3.2-3.5c-2,0-3.2,1.5-3.2,3.5c0,2,1.3,3.5,3.2,3.5C70.9,12.7,71.3,12.6,71.6,12.5z"/>
</g>
</svg>
